<?xml version="1.0" standalone="no"?>
<!DOCTYPE svg PUBLIC "-//W3C//DTD SVG 20010904//EN"
 "http://www.w3.org/TR/2001/REC-SVG-20010904/DTD/svg10.dtd">
<svg version="1.0" xmlns="http://www.w3.org/2000/svg"
 width="1920.000000pt" height="3086.000000pt" viewBox="0 0 1920.000000 3086.000000"
 preserveAspectRatio="xMidYMid meet">

<g transform="translate(0.000000,3086.000000) scale(0.100000,-0.100000)"
fill="#000000" stroke="none">
<path d="M2 27769 l3 -3091 147 -62 c111 -47 219 -106 445 -243 164 -99 1197
-699 2295 -1332 l1997 -1151 243 -95 243 -95 274 0 274 0 183 50 c100 28 382
120 626 206 463 162 945 310 2043 624 779 223 1351 366 2409 601 1285 286
3215 653 4356 828 198 31 491 86 750 141 360 77 496 101 885 155 796 112 1105
169 1591 296 232 60 425 109 428 109 3 0 6 1384 6 3075 l0 3075 -9600 0 -9600
0 2 -3091z"/>
</g>
</svg>
